<svg id="d675245f-b725-4531-9e5e-4a68ded5e28d" data-name="Layer 1" xmlns="http://www.w3.org/2000/svg" viewBox="0 0 40 40"><defs><style>.b44e7a6a-e8c9-429d-9132-2acb4b1d219b{fill:none;stroke:#000;stroke-miterlimit:10;stroke-width:1.5px;}</style></defs><title>Artboard 1</title><path class="b44e7a6a-e8c9-429d-9132-2acb4b1d219b" d="M34.21,35.91,7.6,35.7a1.8,1.8,0,0,1-1.61-2V7.93A1.8,1.8,0,0,1,7.6,6l24.11.07-.14,27.63a2.18,2.18,0,0,0,2.21,2.16h0A2.18,2.18,0,0,0,36,33.68V13H32"/><rect class="b44e7a6a-e8c9-429d-9132-2acb4b1d219b" x="9.77" y="11.24" width="18.24" height="0.14" rx="0.05" ry="0.05"/><rect class="b44e7a6a-e8c9-429d-9132-2acb4b1d219b" x="9.77" y="15.83" width="18.24" height="0.14" rx="0.05" ry="0.05"/><rect class="b44e7a6a-e8c9-429d-9132-2acb4b1d219b" x="9.91" y="30.51" width="18.24" height="0.14" rx="0.05" ry="0.05"/><rect class="b44e7a6a-e8c9-429d-9132-2acb4b1d219b" x="22.88" y="20.46" width="5.27" height="0.14" rx="0.05" ry="0.05"/><rect class="b44e7a6a-e8c9-429d-9132-2acb4b1d219b" x="22.88" y="25.16" width="5.27" height="0.14" rx="0.05" ry="0.05"/><rect class="b44e7a6a-e8c9-429d-9132-2acb4b1d219b" x="9.91" y="19.46" width="9.55" height="7.12"/></svg>