<?xml version="1.0" encoding="utf-8"?>
<!-- Generator: Adobe Illustrator 22.0.0, SVG Export Plug-In . SVG Version: 6.00 Build 0)  -->
<svg version="1.1" id="Layer_1" xmlns="http://www.w3.org/2000/svg" xmlns:xlink="http://www.w3.org/1999/xlink" x="0px" y="0px"
	 viewBox="0 0 30 28.4" style="enable-background:new 0 0 30 28.4;" xml:space="preserve">
<style type="text/css">
	.st0{fill:#FFFFFF;}
</style>
<g>
	<path class="st0" d="M17.9,20.6"/>
	<path d="M30,23.9c0,0.2-0.1,0.3-0.1,0.5c-0.3,0.9-1.1,1.4-2,1.4c-0.6,0-1.2,0-1.8,0c-0.3,0-0.5-0.2-0.5-0.5c0-0.3,0.2-0.5,0.5-0.5
		c0.6,0,1.2,0,1.8,0c0.7,0,1.1-0.5,1.2-1.1c0,0,0-0.1,0-0.1c0-7.1,0-14.2,0-21.3c0-0.3-0.1-0.6-0.2-0.8C28.6,1.1,28.3,1,27.9,1
		c0,0-0.1,0-0.1,0C19.3,1,10.7,1,2.2,1C1.4,1,1,1.6,1,2.2c0,7.1,0,14.2,0,21.4c0,0.8,0.5,1.2,1.2,1.2c4.6,0,9.2,0,13.8,0
		c0.3,0,0.5,0.2,0.5,0.5c0,0.3-0.2,0.5-0.5,0.5c-0.8,0-1.6,0-2.4,0c-3.8,0-7.6,0-11.4,0c-1.3,0-2.2-1.1-2.2-2.2C0,16.5,0,9.3,0,2.2
		C0,1.1,0.8,0.1,1.8,0c0,0,0,0,0,0c8.8,0,17.5,0,26.3,0c0,0,0,0,0.1,0c0.9,0.2,1.4,0.7,1.7,1.5C30,1.7,30,1.8,30,1.9
		C30,9.2,30,16.5,30,23.9z"/>
	<path d="M19.2,27.9c0-2.5,0-4.9,0-7.4c-0.1,0-0.2,0-0.3,0c-0.5,0-0.8-0.3-0.8-0.8c0-0.4,0-0.8-0.3-1.1c-0.1-0.1-0.2-0.3-0.4-0.4
		c-0.4-0.3-0.4-0.8,0-1.1c0.4-0.4,0.7-0.9,0.6-1.5c0-0.2,0-0.3,0.1-0.5c0.1-0.3,0.3-0.3,0.6-0.3c0.2,0,0.5,0,0.7-0.1
		c0.4-0.1,0.6-0.3,0.9-0.5c0,0,0.1-0.1,0.1-0.1c0.4-0.3,0.7-0.3,1,0.1c0.2,0.2,0.4,0.4,0.7,0.5c0.2,0.1,0.4,0.1,0.6,0.1
		c0.1,0,0.1,0,0.2,0c0.6,0,0.8,0.2,0.8,0.8c0,0.6,0.2,1.1,0.6,1.5c0.4,0.4,0.4,0.7,0,1.1c-0.4,0.4-0.7,0.9-0.6,1.5
		c0,0.5-0.2,0.8-0.8,0.8c-0.1,0-0.2,0-0.3,0c-0.2,0-0.2,0.1-0.2,0.2c0,0.8,0,1.7,0,2.5c0,1.5,0,3,0,4.5c0,0.1,0,0.1,0,0.2
		c-0.2-0.1-0.4-0.2-0.6-0.4c-0.3-0.2-0.5-0.3-0.8-0.5c-0.2-0.1-0.4-0.1-0.6,0c-0.4,0.2-0.8,0.5-1.2,0.8
		C19.4,27.8,19.3,27.8,19.2,27.9z M21,19.6c1.1,0,2-0.9,2-2c0-1.1-0.9-2-2-2c-1.1,0-2,0.9-2,2C19.1,18.7,19.9,19.6,21,19.6z"/>
	<path d="M15,10.1c3.9,0,7.8,0,11.6,0c0.1,0,0.2,0,0.3,0c0.2,0.1,0.4,0.3,0.4,0.6c0,0.3-0.2,0.5-0.5,0.5c-0.1,0-0.1,0-0.2,0
		c-7.7,0-15.5,0-23.2,0c-0.4,0-0.7-0.2-0.7-0.6c0-0.3,0.2-0.5,0.5-0.5c0.1,0,0.1,0,0.2,0C7.3,10.1,11.1,10.1,15,10.1z"/>
	<path d="M15,4.8c3.9,0,7.7,0,11.6,0c0.3,0,0.6,0.2,0.6,0.5c0.1,0.3-0.1,0.6-0.4,0.6c-0.1,0-0.2,0-0.2,0c-7.7,0-15.3,0-23,0
		C3,5.9,2.8,5.7,2.8,5.3C2.8,5,3,4.8,3.3,4.8c0.1,0,0.1,0,0.2,0C7.3,4.8,11.2,4.8,15,4.8z"/>
	<path d="M6.6,16.2c-1.1,0-2.2,0-3.3,0c-0.4,0-0.7-0.3-0.6-0.7c0.1-0.3,0.3-0.4,0.6-0.4c1.1,0,2.2,0,3.2,0c1.1,0,2.2,0,3.3,0
		c0.4,0,0.7,0.4,0.6,0.8c-0.1,0.2-0.3,0.4-0.6,0.4C8.8,16.2,7.7,16.2,6.6,16.2z"/>
</g>
</svg>
