<svg id="0c408216-4549-45ec-a279-1ffa6887dc22" data-name="Layer 1" xmlns="http://www.w3.org/2000/svg" viewBox="0 0 31 30.94"><defs><style>.b68c9a47-8468-465e-b53b-becf2f6358fc{fill:none;stroke:#000;stroke-miterlimit:10;}</style></defs><title>Content</title><path class="b68c9a47-8468-465e-b53b-becf2f6358fc" d="M32.21,34.91,5.6,34.7a1.8,1.8,0,0,1-1.61-2V6.93A1.8,1.8,0,0,1,5.6,5l24.11.07-.14,27.63a2.18,2.18,0,0,0,2.21,2.16h0A2.18,2.18,0,0,0,34,32.68V12H30" transform="translate(-3.49 -4.48)"/><rect class="b68c9a47-8468-465e-b53b-becf2f6358fc" x="4.28" y="6.76" width="18.24" height="0.14" rx="0.05" ry="0.05"/><rect class="b68c9a47-8468-465e-b53b-becf2f6358fc" x="4.28" y="10.36" width="18.24" height="0.14" rx="0.05" ry="0.05"/><rect class="b68c9a47-8468-465e-b53b-becf2f6358fc" x="4.42" y="24.03" width="18.24" height="0.14" rx="0.05" ry="0.05"/><rect class="b68c9a47-8468-465e-b53b-becf2f6358fc" x="17.39" y="13.99" width="5.27" height="0.14" rx="0.05" ry="0.05"/><rect class="b68c9a47-8468-465e-b53b-becf2f6358fc" x="17.39" y="17.34" width="5.27" height="0.14" rx="0.05" ry="0.05"/><rect class="b68c9a47-8468-465e-b53b-becf2f6358fc" x="17.39" y="20.69" width="5.27" height="0.14" rx="0.05" ry="0.05"/><rect class="b68c9a47-8468-465e-b53b-becf2f6358fc" x="4.42" y="13.99" width="9.55" height="7.12"/></svg>