<svg id="fc812fbc-c4b8-4bb7-a0e6-aaa655e5204f" data-name="Layer 1" xmlns="http://www.w3.org/2000/svg" viewBox="0 0 31.5 31.44"><defs><style>.\38 a7ea02b-0b86-4902-a8b0-6d3477789bd7{fill:none;stroke:#000;stroke-miterlimit:10;stroke-width:1.5px;}</style></defs><title>Content-b</title><path class="8a7ea02b-0b86-4902-a8b0-6d3477789bd7" d="M34.21,35.91,7.6,35.7a1.8,1.8,0,0,1-1.61-2V7.93A1.8,1.8,0,0,1,7.6,6l24.11.07-.14,27.63a2.18,2.18,0,0,0,2.21,2.16h0A2.18,2.18,0,0,0,36,33.68V13H32" transform="translate(-5.24 -5.23)"/><rect class="8a7ea02b-0b86-4902-a8b0-6d3477789bd7" x="4.53" y="6.01" width="18.24" height="0.14" rx="0.05" ry="0.05"/><rect class="8a7ea02b-0b86-4902-a8b0-6d3477789bd7" x="4.53" y="10.61" width="18.24" height="0.14" rx="0.05" ry="0.05"/><rect class="8a7ea02b-0b86-4902-a8b0-6d3477789bd7" x="4.67" y="25.28" width="18.24" height="0.14" rx="0.05" ry="0.05"/><rect class="8a7ea02b-0b86-4902-a8b0-6d3477789bd7" x="17.64" y="15.24" width="5.27" height="0.14" rx="0.05" ry="0.05"/><rect class="8a7ea02b-0b86-4902-a8b0-6d3477789bd7" x="17.64" y="19.94" width="5.27" height="0.14" rx="0.05" ry="0.05"/><rect class="8a7ea02b-0b86-4902-a8b0-6d3477789bd7" x="4.67" y="14.24" width="9.55" height="7.12"/></svg>