<?xml version="1.0" encoding="utf-8"?>
<!-- Generator: Adobe Illustrator 22.0.0, SVG Export Plug-In . SVG Version: 6.00 Build 0)  -->
<svg version="1.1" id="Layer_1" xmlns="http://www.w3.org/2000/svg" xmlns:xlink="http://www.w3.org/1999/xlink" x="0px" y="0px"
	 viewBox="0 0 30 25.3" style="enable-background:new 0 0 30 25.3;" xml:space="preserve">
<g>
	<path d="M0.6,0C0.9,0.1,1,0.3,1,0.6c0,7.7,0,15.5,0,23.2C1,23.9,1,24,1,24c0.1,0,0.1,0,0.2,0c2.9,0,5.8,0,8.6,0c6.5,0,13,0,19.5,0
		c0.2,0,0.4,0.1,0.5,0.3c0.1,0.2,0.1,0.5,0,0.7c-0.1,0.1-0.2,0.2-0.4,0.3c-9.6,0-19.3,0-28.9,0c0,0,0,0-0.1,0
		c-0.4,0-0.5-0.2-0.5-0.6c0-8,0-16,0-24C0,0.4,0.1,0.1,0.4,0C0.5,0,0.5,0,0.6,0z"/>
	<path d="M8.3,4C7,4,5.8,4,4.6,4c0,0.1,0,0.2,0,0.2c0,5.8,0,11.7,0,17.5c0,0.1,0,0.2,0,0.3c0,0.3-0.2,0.5-0.5,0.5
		c-0.3,0-0.5-0.2-0.5-0.5c0-6.1,0-12.3,0-18.4C3.6,3.2,3.8,3,4.2,3c1.5,0,3,0,4.4,0c0.4,0,0.6,0.2,0.6,0.6c0,6.1,0,12.3,0,18.4
		c0,0.3-0.2,0.5-0.5,0.5c-0.3,0-0.5-0.2-0.5-0.5c0-3.6,0-7.1,0-10.7c0-2.4,0-4.8,0-7.2C8.3,4.1,8.3,4.1,8.3,4z"/>
	<path d="M13.6,8.7c0,0.1,0,0.2,0,0.2c0,4.3,0,8.7,0,13c0,0.3-0.1,0.5-0.4,0.5c-0.3,0-0.5-0.2-0.6-0.5c0,0,0-0.1,0-0.1
		c0-4.5,0-9,0-13.6c0-0.5,0.2-0.6,0.6-0.6c1.5,0,2.9,0,4.4,0c0.4,0,0.6,0.2,0.6,0.6c0,4.5,0,9.1,0,13.6c0,0.2-0.1,0.4-0.3,0.5
		c-0.2,0.1-0.3,0.1-0.5,0c-0.1-0.1-0.2-0.2-0.2-0.4c0-0.1,0-0.1,0-0.2c0-4.3,0-8.6,0-13c0-0.1,0-0.1,0-0.2C16,8.7,14.8,8.7,13.6,8.7
		z"/>
	<path d="M26.3,12.9c-1.2,0-2.5,0-3.7,0c0,0.1,0,0.1,0,0.2c0,2.9,0,5.8,0,8.7c0,0.4-0.2,0.6-0.6,0.5c-0.2,0-0.4-0.2-0.4-0.4
		c0-0.2,0-0.4,0-0.6c0-2.9,0-5.9,0-8.8c0-0.4,0.2-0.6,0.6-0.6c1.5,0,3,0,4.5,0c0.4,0,0.5,0.2,0.5,0.5c0,3.1,0,6.2,0,9.4
		c0,0.3-0.1,0.5-0.4,0.5c-0.2,0.1-0.4,0-0.5-0.2c0-0.1-0.1-0.2-0.1-0.3c0-2.9,0-5.9,0-8.8C26.3,13,26.3,13,26.3,12.9z"/>
</g>
</svg>
