<?xml version="1.0" encoding="utf-8"?>
<!-- Generator: Adobe Illustrator 22.0.0, SVG Export Plug-In . SVG Version: 6.00 Build 0)  -->
<svg version="1.1" id="Layer_1" xmlns="http://www.w3.org/2000/svg" xmlns:xlink="http://www.w3.org/1999/xlink" x="0px" y="0px"
	 viewBox="0 0 226 205" style="enable-background:new 0 0 226 205;" xml:space="preserve">
<style type="text/css">
	.st0{fill:url(#SVGID_1_);}
	.st1{fill:url(#SVGID_2_);}
	.st2{fill:url(#SVGID_3_);}
	.st3{fill:url(#SVGID_4_);}
	.st4{fill:url(#SVGID_5_);}
	.st5{fill:url(#SVGID_6_);}
	.st6{fill:url(#SVGID_7_);}
	.st7{fill:url(#SVGID_8_);}
	.st8{fill:url(#SVGID_9_);}
	.st9{fill:url(#SVGID_10_);}
</style>
<g>
	<linearGradient id="SVGID_1_" gradientUnits="userSpaceOnUse" x1="3.8399" y1="104.4127" x2="216.3683" y2="104.4127">
		<stop  offset="0" style="stop-color:#C14F2D"/>
		<stop  offset="1" style="stop-color:#F77D57"/>
	</linearGradient>
	<path class="st0" d="M139,153.2c0,12,0,23.3,0,35c-2.3,0.1-4.2,0.2-6.6,0.4c0-11.8,0-23.2,0-35c-3.9,0-7.3,0-11.2,0
		c0,11.3,0,22.7,0,34.5c-2.5,0-4.6,0-6.9,0c0-11.5,0-22.8,0-34.9c-2.1,0-3.8,0-5.5,0c-30.7,0-61.3,0-92-0.1c-2.3,0-4.7-0.3-6.8-1
		c-4.7-1.6-6.8-5.7-5.9-10.7c0.7-3.9,4.6-7.2,8.9-7.3c5.6-0.1,11.3,0,17.4,0c0-4,0-7.8,0-11.6c0-20.5,0-41,0-61.5
		c0-22.6,17.3-40.4,40-40.7c18.3-0.3,36.7-0.1,55,0c2.3,0,4.7-0.5,4.9,3.3c0.1,4.1-2.5,3.5-5,3.5c-11.8,0-23.5,0-36.5,0
		c8.3,6.3,13.6,13.4,15.8,22.5c0.9,3.7,1.6,7.5,1.6,11.2c0.1,23.8,0.1,47.7,0.1,71.5c0,8.6-0.2,8.8-8.6,8.8c-26.8,0-53.7,0-80.5,0
		c-1.3,0-2.8-0.3-4,0.1c-1,0.3-1.9,1.4-2.8,2.2c0.9,0.9,1.6,2.1,2.6,2.6c1,0.5,2.3,0.2,3.5,0.2c62.5,0,125,0,187.5,0
		c1,0,2.1,0.3,3-0.1c1.1-0.4,2.1-1.4,3.1-2.1c-0.7-0.9-1.2-2.5-2.1-2.7c-3.5-1.1-3.8-3.5-3.8-6.6c0.1-23.8,0.2-47.7,0-71.5
		c-0.1-10.4-2.6-20-10.7-27.3c-6.1-5.6-13.6-8-21.6-8.9c-1.3-6.4-1.2-6.5,5-5.8c17.8,1.8,33.3,18.9,33.3,36.6c0,24.3,0,48.7,0.1,73
		c0,1.8,0.5,4.4,1.7,5.2c4.2,2.7,5.4,6.4,4,10.7c-1.6,4.8-5.9,6.4-10.7,6.4c-11.7,0-23.3,0-35,0C159.9,153.2,149.8,153.2,139,153.2z
		 M99.4,59.2c-0.5-3.1-0.8-5.6-1.4-7.9c-4.2-15.1-16.5-24.1-30-23.8c-17,0.4-30.6,13.8-30.9,31.4c-0.4,22.8-0.1,45.7-0.1,68.5
		c0,2.1,0,4.2,0,6.5c3.9,0,7.3,0,11,0c0-2.1,0-3.9,0-5.7c0-20.5,0-41,0-61.5c0-6.5,1-7.4,7.5-7.4C69.9,59.2,84.2,59.2,99.4,59.2z
		 M55.3,133.8c14.8,0,29.2,0,43.8,0c0-10.5,0-20.6-0.1-30.7c0-1-0.7-2.6-1.6-3c-13.9-7.3-27.8-14.6-42.2-22
		C55.3,97,55.3,115.2,55.3,133.8z M98.8,92.9c0-9.1,0-17.7,0-26.5c-14.7,0-29.1,0-44.7,0c1.3,2.2,1.8,4.4,3.1,5.1
		C70.8,78.7,84.6,85.6,98.8,92.9z"/>
	<linearGradient id="SVGID_2_" gradientUnits="userSpaceOnUse" x1="131.9105" y1="40.0664" x2="166.1201" y2="40.0664">
		<stop  offset="0" style="stop-color:#C14F2D"/>
		<stop  offset="1" style="stop-color:#F77D57"/>
	</linearGradient>
	<path class="st1" d="M142,33.2c0,7.9-0.1,15,0.1,22.2c0,1.5,1.2,2.9,1.9,4.3c1.7,3.4,0.8,6.6-2.3,8.1c-2.1,1-5.7,0.8-7.5-0.4
		c-2.6-1.9-3.3-5.1-0.7-8.3c1-1.2,1.5-3.2,1.5-4.9c0.1-12.1,0.2-24.3,0-36.4c-0.1-4.3,1.2-6.1,5.6-6c6.7,0.2,13.3,0.1,20,0
		c4,0,5.7,1.8,5.6,5.8c-0.1,3.3-0.1,6.7,0,10c0.1,3.9-1.5,5.8-5.6,5.7C154.5,33,148.6,33.2,142,33.2z M142.2,26.3
		c5.9,0,11.2,0,16.6,0c0-2.9,0-5.3,0-7.9c-5.6,0-11,0-16.6,0C142.2,21.1,142.2,23.6,142.2,26.3z"/>
	<linearGradient id="SVGID_3_" gradientUnits="userSpaceOnUse" x1="159.3191" y1="136.7744" x2="165.7307" y2="136.7744">
		<stop  offset="0" style="stop-color:#C14F2D"/>
		<stop  offset="1" style="stop-color:#F77D57"/>
	</linearGradient>
	<path class="st2" d="M162.3,132.8c1.7,2.2,3.6,3.7,3.4,4.8c-0.2,1.3-2.1,2.8-3.5,3.1c-0.7,0.2-2.8-2-2.9-3.1
		C159.3,136.3,160.9,135,162.3,132.8z"/>
	<linearGradient id="SVGID_4_" gradientUnits="userSpaceOnUse" x1="195.2962" y1="136.7792" x2="201.1759" y2="136.7792">
		<stop  offset="0" style="stop-color:#C14F2D"/>
		<stop  offset="1" style="stop-color:#F77D57"/>
	</linearGradient>
	<path class="st3" d="M198.6,132.7c1.3,2.4,2.7,3.9,2.6,5.1c-0.1,1.1-2,2.1-3,3.1c-1-1.3-2.6-2.5-2.8-3.9
		C195.1,136.1,196.9,134.8,198.6,132.7z"/>
	<linearGradient id="SVGID_5_" gradientUnits="userSpaceOnUse" x1="111.3911" y1="137.596" x2="119.3201" y2="137.596">
		<stop  offset="0" style="stop-color:#C14F2D"/>
		<stop  offset="1" style="stop-color:#F77D57"/>
	</linearGradient>
	<path class="st4" d="M119.3,137.3c-2.1,1.6-3.4,3.3-4.7,3.4c-1.1,0.1-3.3-1.9-3.2-2.8c0.2-1.3,1.7-3.3,3-3.5
		C115.6,134.2,117.1,135.9,119.3,137.3z"/>
	<linearGradient id="SVGID_6_" gradientUnits="userSpaceOnUse" x1="123.3576" y1="137.5913" x2="131.3256" y2="137.5913">
		<stop  offset="0" style="stop-color:#C14F2D"/>
		<stop  offset="1" style="stop-color:#F77D57"/>
	</linearGradient>
	<path class="st5" d="M131.3,137.1c-2.2,1.8-3.4,3.5-4.8,3.6c-1,0.1-3-1.8-3.2-3c-0.1-1.1,1.6-3.3,2.7-3.3
		C127.4,134.3,128.9,135.8,131.3,137.1z"/>
	<linearGradient id="SVGID_7_" gradientUnits="userSpaceOnUse" x1="147.3336" y1="137.5887" x2="155.2992" y2="137.5887">
		<stop  offset="0" style="stop-color:#C14F2D"/>
		<stop  offset="1" style="stop-color:#F77D57"/>
	</linearGradient>
	<path class="st6" d="M155.3,137.2c-2.2,1.7-3.5,3.5-4.9,3.6c-1,0.1-2.9-1.9-3.1-3.1c-0.1-1.1,1.7-3.2,2.7-3.3
		C151.4,134.4,152.9,135.8,155.3,137.2z"/>
	<linearGradient id="SVGID_8_" gradientUnits="userSpaceOnUse" x1="171.1036" y1="137.6075" x2="179.2023" y2="137.6075">
		<stop  offset="0" style="stop-color:#C14F2D"/>
		<stop  offset="1" style="stop-color:#F77D57"/>
	</linearGradient>
	<path class="st7" d="M179.2,139.4c-1.5,0.5-3.2,1.7-4.6,1.4c-1.4-0.3-2.4-2.1-3.5-3.2c1.1-1.1,2.1-2.8,3.4-3.2
		c0.8-0.2,2.1,1.6,3.3,2.5C178.2,137.7,178.7,138.6,179.2,139.4z"/>
	<linearGradient id="SVGID_9_" gradientUnits="userSpaceOnUse" x1="183.2974" y1="137.5333" x2="190.6728" y2="137.5333">
		<stop  offset="0" style="stop-color:#C14F2D"/>
		<stop  offset="1" style="stop-color:#F77D57"/>
	</linearGradient>
	<path class="st8" d="M190.7,137.6c-2.2,1.6-3.7,3.3-4.3,3c-1.3-0.6-2.7-2.2-3-3.6c-0.2-0.7,1.9-2.7,2.9-2.7
		C187.5,134.5,188.6,136,190.7,137.6z"/>
	<linearGradient id="SVGID_10_" gradientUnits="userSpaceOnUse" x1="135.3354" y1="138.224" x2="141.6298" y2="138.224">
		<stop  offset="0" style="stop-color:#C14F2D"/>
		<stop  offset="1" style="stop-color:#F77D57"/>
	</linearGradient>
	<path class="st9" d="M138.3,142c-1.4-2-3-3.3-3-4.7c0-1,2.3-3.1,3-2.9c1.4,0.4,3,2,3.3,3.3C141.8,138.7,139.9,140.1,138.3,142z"/>
</g>
</svg>
