<?xml version="1.0" encoding="utf-8"?>
<!-- Generator: Adobe Illustrator 22.0.0, SVG Export Plug-In . SVG Version: 6.00 Build 0)  -->
<svg version="1.1" id="Layer_1" xmlns="http://www.w3.org/2000/svg" xmlns:xlink="http://www.w3.org/1999/xlink" x="0px" y="0px"
	 viewBox="0 0 30 26.3" style="enable-background:new 0 0 30 26.3;" xml:space="preserve">
<g>
	<path d="M15.2,0c0.3,0,0.5,0.1,0.8,0.1C18,0.5,19.5,2,19.8,4c0.3,1.9-0.4,3.5-2,4.6C17.5,8.7,17.3,8.9,17,9
		c1.5,0.7,2.7,1.9,3.5,3.3c0.8,1.5,1.2,3,1.3,4.7c0.1-0.1,0.1-0.1,0.2-0.1c1-0.7,1.9-1.5,2.9-2.2c0.7-0.5,1.5-1,2.3-1.2
		c0.5-0.2,1.1-0.2,1.6,0c0.7,0.3,1.1,0.8,1.2,1.6c0.1,0.7-0.2,1.4-0.5,2.1c-0.5,1-1.2,1.9-1.9,2.7c-2.4,2.5-5.3,4.3-8.6,5.5
		c-1.1,0.4-2.3,0.7-3.4,0.8c-2,0.3-4,0-6-0.5c-1-0.2-2-0.5-2.9-0.8c-1.9-0.5-3.7-0.3-5.5,0.4c-0.3,0.1-0.7,0.3-1.1,0.4
		c0-0.1,0-0.1,0-0.2c0-3.2,0-6.4,0-9.7c0-0.3,0.1-0.6,0.3-0.8c1.1-1,2.3-1.8,3.6-2.4c0.7-0.3,1.4-0.4,2.2-0.3
		c0.6,0.1,1.3,0.2,1.9,0.3c0.9-1.8,2.3-3.3,4.3-4c-0.3-0.2-0.6-0.4-0.8-0.6c-2.4-2.2-1.9-6,0.9-7.5c0.6-0.3,1.3-0.5,2-0.6
		c0,0,0.1,0,0.1,0C14.8,0,15,0,15.2,0z M1,24.3c0.1,0,0.1,0,0.2-0.1c0.8-0.3,1.7-0.4,2.6-0.5c1.3-0.1,2.6,0.1,3.8,0.5
		c1.6,0.5,3.2,0.9,4.8,1.1c1.3,0.1,2.6,0.1,3.8-0.1c1.7-0.3,3.3-0.9,4.8-1.7c2.1-1.1,4.1-2.4,5.7-4.2c0.7-0.7,1.3-1.5,1.7-2.3
		c0.3-0.5,0.5-1,0.5-1.6c0-0.4-0.2-0.7-0.6-0.8c-0.2,0-0.3,0-0.5,0c-0.5,0.1-1,0.3-1.5,0.6c-1,0.6-2,1.3-2.9,2.1
		c-0.9,0.7-1.7,1.4-2.7,1.9c-0.6,0.3-1.1,0.6-1.8,0.6c-0.9,0-1.8,0.1-2.7,0.1c-1.3,0-2.5-0.1-3.8-0.3c-0.4-0.1-0.9-0.1-1.3-0.4
		c-0.5-0.3-0.5-0.9,0-1.2c0.2-0.1,0.4-0.2,0.6-0.3c0.6-0.2,1.3-0.4,1.9-0.6c1-0.4,2-0.8,2.9-1.5c0.3-0.3,0.7-0.6,0.8-1
		c0.3-0.7-0.1-1.4-0.8-1.6c-0.5-0.1-1-0.1-1.5,0.1c-1,0.2-2,0.5-3,0.8c-1.1,0.4-2.3,0.5-3.5,0.2c-0.8-0.2-1.6-0.3-2.3-0.5
		c-0.6-0.1-1.3-0.1-1.9,0.2c-1.2,0.5-2.3,1.2-3.2,2.1C1,15.8,1,15.9,1,16c0,2.6,0,5.2,0,7.8c0,0.1,0,0.2,0,0.3C1,24.2,1,24.2,1,24.3
		z M15.1,1c-1.1,0-1.8,0.2-2.6,0.7C10.7,3,10.4,5.6,12,7.2c1.5,1.5,4,1.7,5.6,0.3c1.3-1.1,1.7-2.9,0.9-4.4C17.7,1.7,16.5,1.1,15.1,1
		z M9,13c0.7,0.1,1.4,0.1,2,0c1-0.3,1.9-0.5,2.9-0.8c0.8-0.2,1.7-0.4,2.5-0.3c1.6,0.2,2.5,1.7,1.8,3.1c-0.3,0.6-0.8,1.1-1.3,1.5
		c-1,0.8-2.2,1.3-3.4,1.7c-0.3,0.1-0.6,0.2-0.8,0.3c0.3,0.1,0.5,0.1,0.8,0.1c1.3,0.1,2.6,0.2,3.9,0.2c0.6,0,1.2-0.1,1.8-0.1
		c0.6-0.1,1.1-0.4,1.7-0.8c0,0,0-0.1,0.1-0.1c0-1.2-0.1-2.3-0.5-3.4c-0.5-1.4-1.3-2.7-2.5-3.6c-1.3-1-2.8-1.4-4.5-1.1
		c-1.4,0.3-2.5,1.1-3.4,2.2C9.6,12.1,9.3,12.5,9,13z"/>
</g>
</svg>
