<?xml version="1.0" encoding="utf-8"?>
<!-- Generator: Adobe Illustrator 22.0.0, SVG Export Plug-In . SVG Version: 6.00 Build 0)  -->
<svg version="1.1" id="Layer_1" xmlns="http://www.w3.org/2000/svg" xmlns:xlink="http://www.w3.org/1999/xlink" x="0px" y="0px"
	 viewBox="0 0 31.2 30.9" style="enable-background:new 0 0 31.2 30.9;" xml:space="preserve">
<style type="text/css">
	.st0{fill:#FFFFFF;}
</style>
<g>
	<path d="M0.2,10.7c0-0.1,0-0.2,0-0.3c0.1-0.5,0.4-0.8,0.8-1c0.3-0.2,0.7-0.5,1-0.7C4.4,7.1,6.7,5.6,9,4c1.7-1.2,3.4-2.3,5.1-3.5
		c0.4-0.3,0.8-0.3,1.2,0c2.6,1.7,5.2,3.3,7.9,5c2.1,1.3,4.3,2.7,6.4,4c0.3,0.2,0.5,0.4,0.6,0.8c0,0,0,0,0,0.1c0,0.1,0,0.2,0,0.3
		c0,0,0,0,0,0.1c-0.1,0.6-0.5,1-1.2,1c-0.7,0-1.3,0-2,0c-0.1,0-0.1,0-0.2,0c0,5,0,9.9,0,14.9c0.1,0,0.1,0,0.2,0c0.4,0,0.9,0,1.3,0
		c0.2,0,0.4,0.1,0.5,0.3c0.1,0.2,0,0.4-0.1,0.6c-0.1,0.1-0.3,0.2-0.5,0.2c-8.5,0-17.1,0-25.6,0c0,0-0.1,0-0.1,0
		c-0.3,0-0.5-0.3-0.5-0.6c0-0.3,0.2-0.5,0.5-0.5c0.3,0,0.6,0,1,0c0.1,0,0.1,0,0.2,0c0-5,0-9.9,0-14.9c-0.1,0-0.1,0-0.2,0
		c-0.7,0-1.4,0-2.1,0c-0.5,0-0.8-0.2-1-0.6C0.3,10.9,0.3,10.8,0.2,10.7z M23.1,26.6c0-5,0-9.9,0-14.9c-5.3,0-10.6,0-15.9,0
		c0,5,0,9.9,0,14.9C12.5,26.6,17.8,26.6,23.1,26.6z M15.2,10.7c4.6,0,9.1,0,13.7,0c0,0,0.1,0,0.1,0c0.1,0,0.2-0.1,0.1-0.2
		c0,0-0.1-0.1-0.1-0.1c-4.7-3-9.5-6-14.2-9c-0.1-0.1-0.2,0-0.3,0C11.3,3.6,8,5.9,4.7,8.1c-1.1,0.8-2.2,1.5-3.3,2.3
		c0,0-0.1,0.1-0.1,0.1c-0.1,0.1,0,0.2,0.2,0.2C6.1,10.7,10.6,10.7,15.2,10.7z M24.1,26.6c0.6,0,1.2,0,1.8,0c0-5,0-9.9,0-14.9
		c-0.6,0-1.2,0-1.8,0C24.1,16.7,24.1,21.6,24.1,26.6z M6.3,26.6c0-5,0-9.9,0-14.9c-0.5,0-1.1,0-1.6,0c0,5,0,9.9,0,14.9
		C5.2,26.6,5.7,26.6,6.3,26.6z"/>
	<path d="M0.2,29.5c0.1-0.3,0.4-0.5,0.7-0.5c9.5,0,19.1,0,28.6,0c0.2,0,0.3,0,0.5,0.2c0.3,0.3,0.2,0.7-0.1,0.9c0,0-0.1,0-0.1,0.1
		c-9.7,0-19.4,0-29.1,0c-0.2-0.1-0.4-0.2-0.5-0.5C0.2,29.7,0.2,29.6,0.2,29.5z"/>
	<path class="st0" d="M0.2,29.7c0.1,0.2,0.2,0.4,0.5,0.5c-0.2,0-0.3,0-0.5,0C0.2,30,0.2,29.9,0.2,29.7z"/>
	<path d="M16.4,21.8c0.1,0,0.2,0.1,0.3,0.1c0.5,0.2,1,0.5,1.4,0.9c0.2,0.2,0.4,0.4,0.7,0.5c0.3,0.2,0.6,0.3,1,0.1
		c0.1,0,0.3,0,0.3,0.1c-0.4,0.4-0.8,0.7-1.4,0.7c-0.6,0-1.1-0.2-1.6-0.6c-0.4-0.3-0.8-0.7-1.1-1c-0.3-0.2-0.6-0.4-0.9-0.6
		c-0.2-0.1-0.4-0.2-0.6-0.2c-1.7-0.4-2.8-1.6-3.1-3.2C11,16.2,12.8,14,15.3,14c1.4,0,2.5,0.5,3.3,1.7c1.4,2.1,0.6,5.2-2.1,6.1
		C16.5,21.7,16.5,21.8,16.4,21.8z M12.9,17.6c0,0.2,0.1,0.6,0.1,1.1c0.1,0.7,0.4,1.4,0.8,1.9c0.8,0.9,2,1,2.8,0.2
		c0.4-0.4,0.7-0.9,0.8-1.4c0.2-0.8,0.1-1.6-0.1-2.4c-0.1-0.6-0.4-1.2-0.8-1.6c-1-1.1-2.6-0.9-3.3,0.3C13,16.2,12.9,16.8,12.9,17.6z"
		/>
</g>
</svg>
